<svg id="Layer_1" data-name="Layer 1" xmlns="http://www.w3.org/2000/svg" viewBox="0 0 167.04 249.12"><defs><style>.cls-1{fill:#fff;}</style></defs><title>Artboard 2</title><path class="cls-1" d="M109.69,95.13q-9.06-10.2-26.46-10.21a39.36,39.36,0,0,0-17,3.44c-.53.25-1,.51-1.54.78h5V99.88H59.06V93h0A24.84,24.84,0,0,0,55,97.68,43,43,0,0,0,49,110.45a54.36,54.36,0,0,0-1.93,14.79q0,18.24,9.27,28.13,9.9,10.32,26.67,10.31,17.19,0,26.78-10.73c.49-.55,1-1.13,1.43-1.74h-6.74v-9.09h8.76v6a33.4,33.4,0,0,0,3.53-8.23,54.89,54.89,0,0,0,2.5-16.46q0-17.4-9.59-28.34M97.86,123.64v27.57H87.39V128.57a32.59,32.59,0,0,0-.45-6.84q-1.43-5.87-7.37-5.86a8.34,8.34,0,0,0-5.59,2A9.82,9.82,0,0,0,70.69,123a34.61,34.61,0,0,0-.89,9v19.27H59.06v-44.4H69.8v5.24a16.1,16.1,0,0,1,2-2.31,16.41,16.41,0,0,1,11.72-4.26,15,15,0,0,1,7.37,1.68,13.13,13.13,0,0,1,4.44,3.73,14.56,14.56,0,0,1,.84,1.34,7.68,7.68,0,0,1,.67,1.59c.18.6.32,1.1.44,1.51a12,12,0,0,1,.31,1.74c.09.74.15,1.25.18,1.55s.06.87.09,1.73,0,1.39,0,1.6Z"/></svg>